<svg width="136" height="71" viewBox="0 0 136 71" fill="none" xmlns="http://www.w3.org/2000/svg">
<path d="M24.5 45.5C25.5 47.5 28.1588 50.6667 30.8254 52C26.4254 56.8 17 52 12.5 48.5C10.1283 46.6553 5.22544 40.6 2.82544 35C0.425442 29.4 0.500007 20 5.50002 17.5C8.50002 16 16.6254 13.6 23.8254 16C31.0254 18.4 40.5 11.5 44.5 9.5C54.9 4.3 54.8254 12.6667 53.8254 17.5C53.4254 20.7 56.6588 20.5 58.3254 20C71.4921 16.1667 98.8254 8.49999 102.825 8.49999C107.825 8.49999 106.825 3 108.825 4.5C110.425 5.7 117.492 2.66667 120.825 1C120.325 1.66667 119.925 3.3 122.325 4.5C124.725 5.7 125.659 9 125.825 10.5H120.825C117.625 6.89999 113.159 7.66666 111.325 8.49999C97.3254 12 68.3254 19.7 64.3254 22.5C60.3254 25.3 54.6588 24.3333 52.3254 23.5C48.3254 20.7 43.6006 21 42.8254 23.5C40.5 31 33 31 29.3254 32.5C20 37 23.5 43.5 24.5 45.5Z" fill="black" stroke="black"/>
<circle cx="112" cy="3" r="1" fill="black"/>
<circle cx="115" cy="2" r="1" fill="black"/>
<circle cx="118" cy="1" r="1" fill="black"/>
<path d="M38.42 49.2C37.3267 49.2 36.32 49.0267 35.4 48.68C34.4933 48.32 33.7 47.82 33.02 47.18C32.34 46.5267 31.8133 45.76 31.44 44.88C31.0667 44 30.88 43.04 30.88 42C30.88 40.96 31.0667 40 31.44 39.12C31.8133 38.24 32.34 37.48 33.02 36.84C33.7133 36.1867 34.52 35.6867 35.44 35.34C36.36 34.98 37.3667 34.8 38.46 34.8C39.6467 34.8 40.7133 34.9933 41.66 35.38C42.62 35.7667 43.4267 36.3333 44.08 37.08L42.44 38.68C41.8933 38.1333 41.3 37.7333 40.66 37.48C40.0333 37.2133 39.34 37.08 38.58 37.08C37.8467 37.08 37.1667 37.2 36.54 37.44C35.9133 37.68 35.3733 38.02 34.92 38.46C34.4667 38.9 34.1133 39.42 33.86 40.02C33.62 40.62 33.5 41.28 33.5 42C33.5 42.7067 33.62 43.36 33.86 43.96C34.1133 44.56 34.4667 45.0867 34.92 45.54C35.3733 45.98 35.9067 46.32 36.52 46.56C37.1333 46.8 37.8133 46.92 38.56 46.92C39.2533 46.92 39.92 46.8133 40.56 46.6C41.2133 46.3733 41.8333 46 42.42 45.48L43.9 47.42C43.1667 48.0067 42.3133 48.4533 41.34 48.76C40.38 49.0533 39.4067 49.2 38.42 49.2ZM41.44 47.08V41.84H43.9V47.42L41.44 47.08ZM53.3492 49.2C51.4292 49.2 49.9226 48.66 48.8292 47.58C47.7492 46.5 47.2092 44.94 47.2092 42.9V35H49.8092V42.8C49.8092 44.24 50.1159 45.2867 50.7292 45.94C51.3559 46.5933 52.2359 46.92 53.3692 46.92C54.5026 46.92 55.3759 46.5933 55.9892 45.94C56.6026 45.2867 56.9092 44.24 56.9092 42.8V35H59.4692V42.9C59.4692 44.94 58.9226 46.5 57.8292 47.58C56.7492 48.66 55.2559 49.2 53.3492 49.2ZM63.1105 49V35H65.7105V49H63.1105ZM72.3372 49V37.2H67.6972V35H79.5772V37.2H74.9372V49H72.3372ZM78.8453 49L85.1453 35H87.7053L94.0253 49H91.3053L85.8853 36.38H86.9253L81.5253 49H78.8453ZM81.7453 45.76L82.4453 43.72H90.0053L90.7053 45.76H81.7453ZM95.8058 49V35H101.566C102.806 35 103.866 35.2 104.746 35.6C105.639 36 106.326 36.5733 106.806 37.32C107.286 38.0667 107.526 38.9533 107.526 39.98C107.526 41.0067 107.286 41.8933 106.806 42.64C106.326 43.3733 105.639 43.94 104.746 44.34C103.866 44.7267 102.806 44.92 101.566 44.92H97.2458L98.4058 43.74V49H95.8058ZM104.966 49L101.426 43.92H104.206L107.766 49H104.966ZM98.4058 44.02L97.2458 42.78H101.446C102.592 42.78 103.452 42.5333 104.026 42.04C104.612 41.5467 104.906 40.86 104.906 39.98C104.906 39.0867 104.612 38.4 104.026 37.92C103.452 37.44 102.592 37.2 101.446 37.2H97.2458L98.4058 35.92V44.02Z" fill="black"/>
<path d="M52.12 68.1C51.08 68.1 50.0933 67.9267 49.16 67.58C48.24 67.22 47.5267 66.76 47.02 66.2L47.48 65.44C47.96 65.9333 48.6133 66.3533 49.44 66.7C50.28 67.0333 51.1667 67.2 52.1 67.2C53.0333 67.2 53.7933 67.08 54.38 66.84C54.98 66.5867 55.42 66.2533 55.7 65.84C55.9933 65.4267 56.14 64.9667 56.14 64.46C56.14 63.86 55.98 63.38 55.66 63.02C55.34 62.66 54.92 62.3733 54.4 62.16C53.88 61.9467 53.3133 61.7667 52.7 61.62C52.0867 61.4733 51.4667 61.32 50.84 61.16C50.2133 60.9867 49.64 60.7667 49.12 60.5C48.6 60.2333 48.18 59.8733 47.86 59.42C47.5533 58.9533 47.4 58.3533 47.4 57.62C47.4 56.9533 47.5733 56.34 47.92 55.78C48.2667 55.22 48.8067 54.7667 49.54 54.42C50.2733 54.0733 51.2133 53.9 52.36 53.9C53.1333 53.9 53.8933 54.0133 54.64 54.24C55.4 54.4667 56.0467 54.7733 56.58 55.16L56.2 55.98C55.6133 55.58 54.98 55.2867 54.3 55.1C53.6333 54.9 52.9867 54.8 52.36 54.8C51.4667 54.8 50.7267 54.9267 50.14 55.18C49.5533 55.4333 49.12 55.7733 48.84 56.2C48.56 56.6133 48.42 57.08 48.42 57.6C48.42 58.2 48.5733 58.68 48.88 59.04C49.2 59.4 49.62 59.6867 50.14 59.9C50.66 60.1133 51.2333 60.2933 51.86 60.44C52.4867 60.5867 53.1067 60.7467 53.72 60.92C54.3333 61.08 54.9 61.2933 55.42 61.56C55.94 61.8267 56.36 62.1867 56.68 62.64C57 63.0933 57.16 63.68 57.16 64.4C57.16 65.0533 56.98 65.6667 56.62 66.24C56.26 66.8 55.7067 67.2533 54.96 67.6C54.2267 67.9333 53.28 68.1 52.12 68.1ZM66.5475 68.1C65.5075 68.1 64.5408 67.9267 63.6475 67.58C62.7675 67.22 62.0008 66.72 61.3475 66.08C60.6942 65.44 60.1875 64.6933 59.8275 63.84C59.4675 62.9733 59.2875 62.0267 59.2875 61C59.2875 59.9733 59.4675 59.0333 59.8275 58.18C60.1875 57.3133 60.6942 56.56 61.3475 55.92C62.0142 55.28 62.7875 54.7867 63.6675 54.44C64.5475 54.08 65.5075 53.9 66.5475 53.9C67.5342 53.9 68.4542 54.06 69.3075 54.38C70.1742 54.7 70.9142 55.1867 71.5275 55.84L70.8875 56.5C70.2875 55.9133 69.6208 55.4933 68.8875 55.24C68.1675 54.9733 67.4008 54.84 66.5875 54.84C65.6942 54.84 64.8608 54.9933 64.0875 55.3C63.3275 55.6067 62.6608 56.04 62.0875 56.6C61.5275 57.16 61.0875 57.8133 60.7675 58.56C60.4608 59.3067 60.3075 60.12 60.3075 61C60.3075 61.88 60.4608 62.6933 60.7675 63.44C61.0875 64.1867 61.5275 64.84 62.0875 65.4C62.6608 65.96 63.3275 66.3933 64.0875 66.7C64.8608 67.0067 65.6942 67.16 66.5875 67.16C67.4008 67.16 68.1675 67.0333 68.8875 66.78C69.6208 66.5133 70.2875 66.08 70.8875 65.48L71.5275 66.14C70.9142 66.7933 70.1742 67.2867 69.3075 67.62C68.4542 67.94 67.5342 68.1 66.5475 68.1ZM85.3239 54H86.3439V68H85.3239V54ZM75.9639 68H74.9439V54H75.9639V68ZM85.4439 61.34H75.8439V60.44H85.4439V61.34ZM97.173 68.1C96.133 68.1 95.1663 67.9267 94.273 67.58C93.393 67.22 92.6196 66.72 91.953 66.08C91.2996 65.4267 90.793 64.6733 90.433 63.82C90.073 62.9533 89.893 62.0133 89.893 61C89.893 59.9867 90.073 59.0533 90.433 58.2C90.793 57.3333 91.2996 56.58 91.953 55.94C92.6196 55.2867 93.393 54.7867 94.273 54.44C95.1663 54.08 96.133 53.9 97.173 53.9C98.213 53.9 99.173 54.08 100.053 54.44C100.946 54.7867 101.72 55.28 102.373 55.92C103.026 56.56 103.533 57.3133 103.893 58.18C104.266 59.0333 104.453 59.9733 104.453 61C104.453 62.0267 104.266 62.9733 103.893 63.84C103.533 64.6933 103.026 65.44 102.373 66.08C101.72 66.72 100.946 67.22 100.053 67.58C99.173 67.9267 98.213 68.1 97.173 68.1ZM97.173 67.16C98.0663 67.16 98.893 67.0067 99.653 66.7C100.413 66.3933 101.073 65.96 101.633 65.4C102.193 64.84 102.626 64.1867 102.933 63.44C103.253 62.6933 103.413 61.88 103.413 61C103.413 60.1067 103.253 59.2933 102.933 58.56C102.626 57.8133 102.193 57.16 101.633 56.6C101.073 56.04 100.413 55.6067 99.653 55.3C98.893 54.9933 98.0663 54.84 97.173 54.84C96.2796 54.84 95.453 54.9933 94.693 55.3C93.933 55.6067 93.2663 56.04 92.693 56.6C92.133 57.16 91.693 57.8133 91.373 58.56C91.0663 59.2933 90.913 60.1067 90.913 61C90.913 61.88 91.0663 62.6933 91.373 63.44C91.693 64.1867 92.133 64.84 92.693 65.4C93.2663 65.96 93.933 66.3933 94.693 66.7C95.453 67.0067 96.2796 67.16 97.173 67.16ZM113.931 68.1C112.891 68.1 111.924 67.9267 111.031 67.58C110.151 67.22 109.377 66.72 108.711 66.08C108.057 65.4267 107.551 64.6733 107.191 63.82C106.831 62.9533 106.651 62.0133 106.651 61C106.651 59.9867 106.831 59.0533 107.191 58.2C107.551 57.3333 108.057 56.58 108.711 55.94C109.377 55.2867 110.151 54.7867 111.031 54.44C111.924 54.08 112.891 53.9 113.931 53.9C114.971 53.9 115.931 54.08 116.811 54.44C117.704 54.7867 118.477 55.28 119.131 55.92C119.784 56.56 120.291 57.3133 120.651 58.18C121.024 59.0333 121.211 59.9733 121.211 61C121.211 62.0267 121.024 62.9733 120.651 63.84C120.291 64.6933 119.784 65.44 119.131 66.08C118.477 66.72 117.704 67.22 116.811 67.58C115.931 67.9267 114.971 68.1 113.931 68.1ZM113.931 67.16C114.824 67.16 115.651 67.0067 116.411 66.7C117.171 66.3933 117.831 65.96 118.391 65.4C118.951 64.84 119.384 64.1867 119.691 63.44C120.011 62.6933 120.171 61.88 120.171 61C120.171 60.1067 120.011 59.2933 119.691 58.56C119.384 57.8133 118.951 57.16 118.391 56.6C117.831 56.04 117.171 55.6067 116.411 55.3C115.651 54.9933 114.824 54.84 113.931 54.84C113.037 54.84 112.211 54.9933 111.451 55.3C110.691 55.6067 110.024 56.04 109.451 56.6C108.891 57.16 108.451 57.8133 108.131 58.56C107.824 59.2933 107.671 60.1067 107.671 61C107.671 61.88 107.824 62.6933 108.131 63.44C108.451 64.1867 108.891 64.84 109.451 65.4C110.024 65.96 110.691 66.3933 111.451 66.7C112.211 67.0067 113.037 67.16 113.931 67.16ZM124.749 68V54H125.769V67.08H133.829V68H124.749Z" fill="black"/>
</svg>
